<svg version="1.1" id="ecommerce_1_" xmlns="http://www.w3.org/2000/svg" x="0" y="0" viewBox="0 0 115 115" style="enable-background:new 0 0 115 115" xml:space="preserve"><style>.st0{fill:#ffeead}.st1{fill:#c9b77d}.st2{fill:#99734a}.st3{fill:#ff6f69}.st4{fill:#96ceb4}.st7{fill:#71a58a}.st14{fill:#b28559}.st19{fill:#fff}</style><g id="inventory_management_1_"><path class="st1" d="M5.017 61.423v48.459A5.118 5.118 0 0 0 10.135 115h48.007a5.117 5.117 0 0 0 5.118-5.118V61.423H5.017z"/><path class="st2" d="m19.551 108.266-2.659-4.763c-.264-.474-.979-.474-1.244 0l-2.659 4.763c-.248.445.091.981.622.981h1.231v1.639c0 .369.315.668.704.668h1.449c.389 0 .704-.299.704-.668v-1.639h1.231c.53 0 .87-.536.621-.981zM51.355 108.266l-2.659-4.763c-.264-.474-.979-.474-1.244 0l-2.659 4.763c-.248.445.091.981.622.981h1.231v1.639c0 .369.315.668.704.668h1.449c.389 0 .704-.299.704-.668v-1.639h1.231c.53 0 .869-.536.621-.981zM28.716 61.423v10.24h.474a.93.93 0 0 1 1.814 0h.694a.93.93 0 0 1 1.814 0h.694a.93.93 0 0 1 1.814 0h.694a.93.93 0 0 1 1.814 0h.694a.93.93 0 0 1 1.814 0h.474v-10.24H28.716z"/><path class="st0" d="M59.095 50.109a5.383 5.383 0 0 0-5.052-3.524H14.339a5.383 5.383 0 0 0-5.052 3.524l-4.27 11.313H63.26l-4.165-11.313z"/><path class="st14" d="M40.292 46.586H29.895l-1.219 14.837h12.803z"/><path class="st2" d="M41.031 105.262a.92.92 0 0 1-.906.691.92.92 0 0 1-.907-.691h-.694a.92.92 0 0 1-.907.691.92.92 0 0 1-.907-.691h-.694a.92.92 0 0 1-.907.691.92.92 0 0 1-.907-.691h-.692a.92.92 0 0 1-.907.691.92.92 0 0 1-.907-.691h-.694a.92.92 0 0 1-.907.691.92.92 0 0 1-.907-.691h-.474v9.722h12.79v-9.722h-.473zM19.355 66.543H10.97a.504.504 0 1 0 0 1.008h8.386a.504.504 0 1 0-.001-1.008zM19.355 69.216H10.97a.504.504 0 1 0 0 1.008h8.386a.504.504 0 1 0-.001-1.008zM19.355 71.888H10.97a.504.504 0 1 0 0 1.008h8.386a.504.504 0 1 0-.001-1.008zM19.355 74.561H10.97a.504.504 0 1 0 0 1.008h8.386a.504.504 0 1 0-.001-1.008z"/><g><path class="st2" d="m19.914 86.013-1.228-1.815.355-.219a.497.497 0 0 0-.053-.875l-1.691-.779a.498.498 0 0 0-.705.435l-.065 1.86a.499.499 0 0 0 .758.441l.474-.292 1.249 1.847h-2.154c.068.134.111.281.116.436.007.239-.072.465-.211.651h2.249a1.087 1.087 0 0 0 .906-1.69zM16.045 80.196a1.087 1.087 0 0 0-1.81 0l-1.26 1.872-.395-.262a.496.496 0 0 0-.772.415l.004 1.862a.498.498 0 0 0 .691.457l1.715-.723a.497.497 0 0 0 .081-.873l-.417-.276 1.259-1.87 1.015 1.526c.165-.344.511-.579.916-.586l-1.027-1.542zM16.193 86.66l-1.58-.984a.495.495 0 0 0-.76.437l.015.501h-2.597l.997-1.499a1.034 1.034 0 0 1-.903-.605l-.999 1.502a1.088 1.088 0 0 0 .905 1.69H13.9l.014.472a.498.498 0 0 0 .785.39l1.518-1.077a.496.496 0 0 0-.024-.827z"/></g><g><path class="st1" d="M5.017 5.944v48.459a5.118 5.118 0 0 0 5.118 5.118h48.007a5.118 5.118 0 0 0 5.118-5.118V5.944H5.017z"/><path class="st2" d="m19.551 52.787-2.659-4.763c-.264-.474-.979-.474-1.244 0l-2.659 4.763c-.248.445.091.981.622.981h1.231v1.639c0 .369.315.668.704.668h1.449c.389 0 .704-.299.704-.668v-1.639h1.231c.53 0 .87-.536.621-.981zM51.355 52.787l-2.659-4.763c-.264-.474-.979-.474-1.244 0l-2.659 4.763c-.248.445.091.981.622.981h1.231v1.639c0 .369.315.668.704.668h1.449c.389 0 .704-.299.704-.668v-1.639h1.231c.53 0 .869-.536.621-.981zM28.716 5.944v10.24h.474a.93.93 0 0 1 1.814 0h.694a.93.93 0 0 1 1.814 0h.694a.93.93 0 0 1 1.814 0h.694a.93.93 0 0 1 1.814 0h.694a.93.93 0 0 1 1.814 0h.474V5.944H28.716z"/><path class="st0" d="M59.095 1.412C58.316.563 56.299 0 54.043 0H14.339c-2.256 0-4.273.563-5.052 1.412l-4.27 4.533H63.26l-4.165-4.533z"/><path class="st14" d="M40.292 0H29.895l-1.179 5.944h12.763z"/><path class="st2" d="M40.85 49.783a.904.904 0 0 1-.887.691.904.904 0 0 1-.887-.691h-.679a.904.904 0 0 1-.887.691.904.904 0 0 1-.887-.691h-.679c-.09.395-.452.691-.887.691s-.796-.296-.887-.691h-.679a.904.904 0 0 1-.887.691.904.904 0 0 1-.887-.691h-.679a.903.903 0 0 1-.887.691.904.904 0 0 1-.887-.691H28.8v9.722h12.509v-9.722h-.459zM19.355 11.064H10.97a.504.504 0 1 0 0 1.008h8.386a.504.504 0 1 0-.001-1.008zM19.355 13.736H10.97a.504.504 0 1 0 0 1.008h8.386a.504.504 0 1 0-.001-1.008zM19.355 16.409H10.97a.504.504 0 1 0 0 1.008h8.386a.504.504 0 1 0-.001-1.008zM19.355 19.082H10.97a.504.504 0 1 0 0 1.008h8.386a.504.504 0 1 0-.001-1.008z"/><g><path class="st2" d="m19.914 30.534-1.228-1.815.355-.219a.497.497 0 0 0-.053-.875l-1.691-.779a.498.498 0 0 0-.705.435l-.065 1.86a.498.498 0 0 0 .758.44l.474-.292 1.249 1.847h-2.154c.068.134.111.281.116.436.007.239-.072.465-.211.651h2.249c.401 0 .769-.22.958-.574.191-.353.17-.782-.052-1.115zM16.045 24.716a1.087 1.087 0 0 0-1.81 0l-1.26 1.872-.395-.262a.498.498 0 0 0-.772.415l.004 1.861a.498.498 0 0 0 .691.457l1.715-.723a.497.497 0 0 0 .081-.873l-.417-.276 1.259-1.87 1.015 1.526c.165-.344.511-.579.916-.586l-1.027-1.541zM16.193 31.181l-1.58-.984a.495.495 0 0 0-.76.437l.015.501h-2.597l.997-1.499a1.034 1.034 0 0 1-.903-.605l-.999 1.502a1.088 1.088 0 0 0 .905 1.69H13.9l.014.472a.498.498 0 0 0 .785.39l1.518-1.077a.496.496 0 0 0-.024-.827z"/></g></g><g><path d="M63.26 21.23H49.099c-3.528 0-6.388 2.708-6.388 6.048v76.339c0 3.34 2.86 6.048 6.388 6.048H63.26V61.423l-1.328-3.608a5.081 5.081 0 0 0 1.328-3.412V21.23z" style="fill:#aa9865"/></g><g><path d="m51.355 108.266-2.659-4.763c-.264-.474-.979-.474-1.244 0l-2.579 4.619a6.542 6.542 0 0 0 4.226 1.544h.403v-.419h1.231c.531 0 .87-.536.622-.981z" style="fill:#825e3b"/></g><g><path class="st7" d="M103.596 13.746H54.281c-3.528 0-6.388 2.708-6.388 6.048v76.339c0 3.34 2.86 6.048 6.388 6.048h49.315c3.528 0 6.388-2.708 6.388-6.048V19.795c-.001-3.341-2.86-6.049-6.388-6.049z"/><path class="st0" d="M54.003 20.258h49.734v72.96H54.003z"/><path class="st19" d="M62.74 35.584h-2.86c-.671 0-1.215.544-1.215 1.215v2.86c0 .671.544 1.215 1.215 1.215h2.86c.671 0 1.215-.544 1.215-1.215v-2.86c0-.671-.544-1.215-1.215-1.215z"/><path class="st7" d="M62.74 34.906h-2.86a1.895 1.895 0 0 0-1.893 1.893v2.86c0 1.044.849 1.893 1.893 1.893h2.86a1.895 1.895 0 0 0 1.893-1.893v-2.86a1.895 1.895 0 0 0-1.893-1.893zm.537 4.753a.538.538 0 0 1-.536.537h-2.86a.538.538 0 0 1-.536-.537v-2.86c0-.295.241-.537.536-.537h2.86c.295 0 .536.241.536.537v2.86z"/><path class="st3" d="M70.822 33.891a1.356 1.356 0 0 0-1.856-.486 15.599 15.599 0 0 0-5.272 5.094 11.01 11.01 0 0 0-2.519-2.284 1.356 1.356 0 1 0-1.489 2.267 8.252 8.252 0 0 1 2.897 3.294c.228.468.702.763 1.22.763h.03a1.357 1.357 0 0 0 1.215-.82 12.875 12.875 0 0 1 5.288-5.974 1.355 1.355 0 0 0 .486-1.854z"/><path class="st19" d="M62.74 46.328h-2.86c-.671 0-1.215.544-1.215 1.215v2.86c0 .671.544 1.215 1.215 1.215h2.86c.671 0 1.215-.544 1.215-1.215v-2.86c0-.672-.544-1.215-1.215-1.215z"/><path class="st7" d="M62.74 45.649h-2.86a1.895 1.895 0 0 0-1.893 1.893v2.86c0 1.044.849 1.893 1.893 1.893h2.86a1.895 1.895 0 0 0 1.893-1.893v-2.86a1.895 1.895 0 0 0-1.893-1.893zm.537 4.753a.537.537 0 0 1-.536.536h-2.86a.537.537 0 0 1-.536-.536v-2.86c0-.295.241-.536.536-.536h2.86c.295 0 .536.241.536.536v2.86z"/><path class="st3" d="M70.822 44.634a1.358 1.358 0 0 0-1.856-.486 15.599 15.599 0 0 0-5.272 5.094 10.984 10.984 0 0 0-2.519-2.283 1.356 1.356 0 1 0-1.489 2.267 8.252 8.252 0 0 1 2.897 3.294c.228.467.702.763 1.22.763h.03a1.357 1.357 0 0 0 1.215-.82 12.875 12.875 0 0 1 5.288-5.974 1.357 1.357 0 0 0 .486-1.855z"/><path class="st19" d="M62.74 57.071h-2.86c-.671 0-1.215.544-1.215 1.215v2.86c0 .671.544 1.215 1.215 1.215h2.86c.671 0 1.215-.544 1.215-1.215v-2.86c0-.671-.544-1.215-1.215-1.215z"/><path class="st7" d="M62.74 56.393h-2.86a1.895 1.895 0 0 0-1.893 1.893v2.86c0 1.044.849 1.893 1.893 1.893h2.86a1.895 1.895 0 0 0 1.893-1.893v-2.86a1.895 1.895 0 0 0-1.893-1.893zm.537 4.752a.537.537 0 0 1-.536.536h-2.86a.537.537 0 0 1-.536-.536v-2.86c0-.295.241-.536.536-.536h2.86c.295 0 .536.241.536.536v2.86z"/><path class="st3" d="M70.822 55.377a1.356 1.356 0 0 0-1.856-.486 15.614 15.614 0 0 0-5.272 5.096 11.01 11.01 0 0 0-2.519-2.284 1.356 1.356 0 1 0-1.489 2.267 8.252 8.252 0 0 1 2.897 3.294c.228.467.702.763 1.22.763h.03a1.357 1.357 0 0 0 1.215-.82 12.876 12.876 0 0 1 5.288-5.975 1.357 1.357 0 0 0 .486-1.855z"/><path class="st19" d="M62.74 67.815h-2.86c-.671 0-1.215.544-1.215 1.215v2.86c0 .671.544 1.215 1.215 1.215h2.86c.671 0 1.215-.544 1.215-1.215v-2.86c0-.671-.544-1.215-1.215-1.215z"/><path class="st7" d="M62.74 67.136h-2.86a1.895 1.895 0 0 0-1.893 1.893v2.86c0 1.044.849 1.893 1.893 1.893h2.86a1.895 1.895 0 0 0 1.893-1.893v-2.86a1.895 1.895 0 0 0-1.893-1.893zm.537 4.753a.537.537 0 0 1-.536.536h-2.86a.537.537 0 0 1-.536-.536v-2.86c0-.296.241-.537.536-.537h2.86c.295 0 .536.241.536.537v2.86z"/><g><path class="st3" d="M70.822 66.12a1.356 1.356 0 0 0-1.856-.486 15.614 15.614 0 0 0-5.272 5.096 10.932 10.932 0 0 0-2.521-2.284 1.354 1.354 0 0 0-1.877.391 1.355 1.355 0 0 0 .391 1.877 8.268 8.268 0 0 1 2.896 3.294c.228.467.702.763 1.22.763h.03a1.357 1.357 0 0 0 1.215-.82 12.876 12.876 0 0 1 5.288-5.975 1.359 1.359 0 0 0 .486-1.856z"/></g><g><path class="st19" d="M62.74 78.559h-2.86c-.671 0-1.215.544-1.215 1.215v2.86c0 .671.544 1.215 1.215 1.215h2.86c.671 0 1.215-.544 1.215-1.215v-2.86c0-.672-.544-1.215-1.215-1.215z"/><path class="st7" d="M62.74 77.88h-2.86a1.895 1.895 0 0 0-1.893 1.893v2.86c0 1.044.849 1.893 1.893 1.893h2.86a1.895 1.895 0 0 0 1.893-1.893v-2.86a1.895 1.895 0 0 0-1.893-1.893zm.537 4.753a.537.537 0 0 1-.536.536h-2.86a.537.537 0 0 1-.536-.536v-2.86c0-.295.241-.536.536-.536h2.86c.295 0 .536.241.536.536v2.86z"/><g><path class="st3" d="M70.822 76.864a1.355 1.355 0 0 0-1.856-.486 15.614 15.614 0 0 0-5.272 5.096 10.932 10.932 0 0 0-2.521-2.284 1.355 1.355 0 1 0-1.486 2.268 8.268 8.268 0 0 1 2.896 3.294c.228.468.702.763 1.22.763h.03a1.357 1.357 0 0 0 1.215-.82 12.876 12.876 0 0 1 5.288-5.975 1.359 1.359 0 0 0 .486-1.856z"/></g></g><g><path class="st4" d="M97.094 37.205h-23.51a1.28 1.28 0 0 0-1.275 1.275v.194a1.28 1.28 0 0 0 1.275 1.275h23.51a1.28 1.28 0 0 0 1.275-1.275v-.194a1.28 1.28 0 0 0-1.275-1.275z"/></g><g><path class="st4" d="M97.094 47.72h-23.51a1.28 1.28 0 0 0-1.275 1.275v.194a1.28 1.28 0 0 0 1.275 1.275h23.51a1.28 1.28 0 0 0 1.275-1.275v-.194a1.28 1.28 0 0 0-1.275-1.275z"/></g><g><path class="st4" d="M97.094 58.236h-23.51a1.28 1.28 0 0 0-1.275 1.275v.194a1.28 1.28 0 0 0 1.275 1.275h23.51a1.28 1.28 0 0 0 1.275-1.275v-.195a1.279 1.279 0 0 0-1.275-1.274z"/></g><g><path class="st4" d="M97.094 68.75h-23.51a1.28 1.28 0 0 0-1.275 1.275v.194a1.28 1.28 0 0 0 1.275 1.275h23.51a1.28 1.28 0 0 0 1.275-1.275v-.194a1.28 1.28 0 0 0-1.275-1.275z"/></g><g><path class="st4" d="M97.094 79.265h-23.51a1.28 1.28 0 0 0-1.275 1.275v.194a1.28 1.28 0 0 0 1.275 1.275h23.51a1.28 1.28 0 0 0 1.275-1.275v-.194a1.28 1.28 0 0 0-1.275-1.275z"/></g><g><path class="st1" d="M87.363 13.62H70.697c-.921 0-1.668.747-1.668 1.668v8.387c0 .921.747 1.668 1.668 1.668h16.666c.921 0 1.668-.747 1.668-1.668v-8.387c0-.922-.747-1.668-1.668-1.668z"/></g><g><path d="M87.363 11.916H70.697c-.921 0-1.668.747-1.668 1.668v8.387c0 .921.747 1.668 1.668 1.668h16.666c.921 0 1.668-.747 1.668-1.668v-8.387c0-.921-.747-1.668-1.668-1.668z" style="fill:#e05858"/></g><g><path class="st3" d="M87.363 11.916H70.697c-.921 0-1.668.747-1.668 1.668v2.43h20.002v-2.43c0-.921-.747-1.668-1.668-1.668z"/></g></g><g><path class="st1" d="M42.711 59.521h5.182v1.902h-5.182z"/></g></g></svg>