<?xml version="1.0" standalone="no"?>
<!DOCTYPE svg PUBLIC "-//W3C//DTD SVG 20010904//EN"
 "http://www.w3.org/TR/2001/REC-SVG-20010904/DTD/svg10.dtd">
<svg version="1.0" xmlns="http://www.w3.org/2000/svg"
 width="512.000000pt" height="512.000000pt" viewBox="0 0 512.000000 512.000000"
 preserveAspectRatio="xMidYMid meet">

<g transform="translate(0.000000,512.000000) scale(0.100000,-0.100000)"
fill="#fff" stroke="none">
<path d="M1903 4894 c-61 -22 -126 -84 -153 -146 -18 -40 -25 -77 -28 -151
l-4 -98 -159 7 c-247 11 -261 2 -354 -234 -46 -118 -55 -148 -49 -180 9 -51
36 -93 76 -117 32 -19 51 -19 763 -17 402 2 739 6 750 9 41 11 84 64 95 118
11 51 9 56 -40 181 -28 71 -63 146 -77 166 -42 61 -68 68 -267 68 l-176 0 0
83 c0 112 -20 173 -76 235 -74 83 -194 113 -301 76z"/>
<path d="M507 4409 c-100 -23 -190 -97 -233 -192 l-29 -62 0 -1845 0 -1845 26
-56 c34 -72 96 -134 168 -168 54 -25 62 -26 261 -28 183 -2 201 -1 163 11 -59
19 -104 49 -153 102 -45 49 -64 86 -80 161 -6 26 -20 57 -30 68 -10 11 -23 33
-29 48 -16 41 -15 3390 0 3420 6 12 19 31 29 42 10 11 23 44 29 73 27 130 107
219 236 263 l50 18 -185 -1 c-102 0 -202 -4 -223 -9z"/>
<path d="M4317 4386 c-79 -29 -113 -61 -187 -180 -39 -64 -69 -120 -66 -125 3
-5 103 -69 222 -142 171 -105 218 -129 225 -118 63 96 129 212 139 243 16 51
8 141 -19 193 -56 110 -200 169 -314 129z"/>
<path d="M3590 3329 c-221 -358 -399 -653 -397 -656 20 -19 213 -130 218 -125
14 15 800 1295 797 1297 -2 2 -159 100 -204 128 -8 4 -153 -222 -414 -644z"/>
<path d="M1128 3724 c-53 -28 -73 -105 -43 -164 32 -62 -4 -60 870 -60 856 0
842 -1 879 51 21 30 21 108 0 138 -37 52 -23 51 -881 51 -686 -1 -802 -3 -825
-16z"/>
<path d="M3101 2208 c-36 -182 -37 -208 -14 -208 18 0 203 136 203 149 0 16
-51 71 -79 86 -15 7 -43 16 -63 20 l-36 7 -11 -54z"/>
</g>
</svg>
